<?xml version="1.0" standalone="no"?>
<!DOCTYPE svg PUBLIC "-//W3C//DTD SVG 20010904//EN"
 "http://www.w3.org/TR/2001/REC-SVG-20010904/DTD/svg10.dtd">
<svg version="1.0" xmlns="http://www.w3.org/2000/svg"
 width="414.000000pt" height="414.000000pt" viewBox="0 0 414.000000 414.000000"
 preserveAspectRatio="xMidYMid meet">
<metadata>
Created by potrace 1.14, written by Peter Selinger 2001-2017
</metadata>
<g transform="translate(0.000000,414.000000) scale(0.100000,-0.100000)"
fill="#000000" stroke="none">
<path d="M2268 3975 c-2 -2 -32 -5 -68 -8 -36 -3 -76 -8 -90 -11 -14 -3 -38
-8 -55 -12 -48 -9 -229 -66 -240 -75 -6 -4 -22 -10 -35 -12 -36 -7 -142 -48
-165 -63 -11 -8 -27 -14 -37 -14 -10 0 -18 -3 -18 -8 0 -4 -17 -15 -37 -24
-46 -21 -94 -49 -108 -64 -5 -5 -29 -23 -52 -38 -24 -16 -43 -33 -43 -37 0 -5
-5 -9 -11 -9 -23 0 -476 -475 -539 -564 -26 -38 -128 -152 -200 -226 -106
-107 -203 -289 -241 -450 -24 -101 -28 -115 -74 -255 -38 -116 -63 -210 -71
-270 -1 -11 -3 -20 -4 -20 -10 0 -22 -143 -22 -270 -1 -154 5 -212 28 -295 8
-30 17 -66 20 -80 7 -36 104 -230 115 -230 5 0 9 -6 9 -13 0 -26 226 -277 249
-277 3 0 17 -10 31 -23 34 -31 112 -85 190 -132 66 -40 314 -165 327 -165 4 0
37 -11 73 -24 69 -26 102 -37 110 -37 3 -1 10 -4 15 -9 9 -6 72 -21 85 -19 3
0 19 -5 35 -11 28 -12 182 -47 235 -55 14 -2 39 -6 55 -9 84 -13 115 -17 230
-31 209 -24 407 -24 525 0 23 4 83 14 135 21 11 1 20 3 20 4 0 1 16 3 35 5 33
4 50 8 100 20 11 3 29 7 40 10 11 3 29 7 40 10 11 3 29 7 40 9 26 6 157 51
195 67 17 7 32 13 35 14 21 6 66 31 72 40 4 5 8 6 8 2 0 -11 168 85 206 118 7
5 24 19 40 30 115 82 245 228 328 368 25 43 46 80 46 83 0 3 14 32 30 66 17
33 30 66 30 74 0 8 4 22 9 32 8 15 26 75 37 124 12 52 15 67 24 118 31 171 32
515 3 655 -4 17 -8 39 -9 50 -5 43 -16 101 -21 115 -3 8 -7 24 -8 36 -2 11 -9
40 -15 65 -7 24 -14 52 -16 62 -1 10 -15 57 -30 105 -15 48 -28 89 -29 92 -1
3 -7 18 -13 33 -7 15 -15 39 -18 53 -3 13 -10 27 -15 30 -5 3 -9 13 -9 22 0 9
-7 30 -15 46 -8 15 -15 33 -15 38 0 17 -117 247 -131 258 -4 3 -17 25 -30 50
-24 45 -137 221 -148 230 -4 3 -20 23 -36 46 -61 84 -228 264 -291 314 -11 8
-42 34 -71 58 -28 23 -54 42 -57 42 -3 0 -27 15 -53 34 -117 83 -304 157 -458
182 -37 6 -203 13 -207 9z"/>
</g>
</svg>
